<mxfile host="app.diagrams.net" agent="Mozilla/5.0 (Windows NT 10.0; Win64; x64) AppleWebKit/537.36 (KHTML, like Gecko) Chrome/137.0.0.0 Safari/537.36" version="27.1.4">
  <diagram name="Page-1" id="gMDvhkSP2Ns9x-4Cgybr">
    <mxGraphModel dx="786" dy="459" grid="1" gridSize="10" guides="1" tooltips="1" connect="1" arrows="1" fold="1" page="1" pageScale="1" pageWidth="827" pageHeight="1169" math="0" shadow="0">
      <root>
        <mxCell id="0" />
        <mxCell id="1" parent="0" />
        <mxCell id="Itl9tVtiQUoRd5ECMhHl-1" value="Début" style="rounded=1;whiteSpace=wrap;arcSize=50;strokeWidth=2;" vertex="1" parent="1">
          <mxGeometry x="253" y="20" width="67" height="39" as="geometry" />
        </mxCell>
        <mxCell id="Itl9tVtiQUoRd5ECMhHl-2" value="Se connecter au site" style="whiteSpace=wrap;strokeWidth=2;" vertex="1" parent="1">
          <mxGeometry x="184" y="109" width="206" height="54" as="geometry" />
        </mxCell>
        <mxCell id="Itl9tVtiQUoRd5ECMhHl-3" value="Rechercher un produit" style="whiteSpace=wrap;strokeWidth=2;" vertex="1" parent="1">
          <mxGeometry x="177" y="213" width="220" height="54" as="geometry" />
        </mxCell>
        <mxCell id="Itl9tVtiQUoRd5ECMhHl-4" value="Ajouter produit au panier" style="whiteSpace=wrap;strokeWidth=2;" vertex="1" parent="1">
          <mxGeometry x="80" y="317" width="243" height="54" as="geometry" />
        </mxCell>
        <mxCell id="Itl9tVtiQUoRd5ECMhHl-5" value="Ajouter d&#39;autres produits ?" style="rhombus;strokeWidth=2;whiteSpace=wrap;" vertex="1" parent="1">
          <mxGeometry x="165" y="421" width="243" height="243" as="geometry" />
        </mxCell>
        <mxCell id="Itl9tVtiQUoRd5ECMhHl-6" value="Valider la commande" style="whiteSpace=wrap;strokeWidth=2;" vertex="1" parent="1">
          <mxGeometry x="182" y="737" width="210" height="54" as="geometry" />
        </mxCell>
        <mxCell id="Itl9tVtiQUoRd5ECMhHl-7" value="Saisir informations de livraison" style="whiteSpace=wrap;strokeWidth=2;" vertex="1" parent="1">
          <mxGeometry x="157" y="841" width="260" height="78" as="geometry" />
        </mxCell>
        <mxCell id="Itl9tVtiQUoRd5ECMhHl-8" value="Choisir mode de paiement" style="whiteSpace=wrap;strokeWidth=2;" vertex="1" parent="1">
          <mxGeometry x="163" y="969" width="248" height="54" as="geometry" />
        </mxCell>
        <mxCell id="Itl9tVtiQUoRd5ECMhHl-9" value="Confirmer le paiement" style="whiteSpace=wrap;strokeWidth=2;" vertex="1" parent="1">
          <mxGeometry x="95" y="1073" width="223" height="54" as="geometry" />
        </mxCell>
        <mxCell id="Itl9tVtiQUoRd5ECMhHl-10" value="Paiement réussi ?" style="rhombus;strokeWidth=2;whiteSpace=wrap;" vertex="1" parent="1">
          <mxGeometry x="198" y="1177" width="178" height="178" as="geometry" />
        </mxCell>
        <mxCell id="Itl9tVtiQUoRd5ECMhHl-11" value="Afficher message de confirmation" style="whiteSpace=wrap;strokeWidth=2;" vertex="1" parent="1">
          <mxGeometry x="157" y="1427" width="260" height="78" as="geometry" />
        </mxCell>
        <mxCell id="Itl9tVtiQUoRd5ECMhHl-12" value="Fin" style="rounded=1;whiteSpace=wrap;arcSize=50;strokeWidth=2;" vertex="1" parent="1">
          <mxGeometry x="264" y="1555" width="46" height="39" as="geometry" />
        </mxCell>
        <mxCell id="Itl9tVtiQUoRd5ECMhHl-13" value="" style="curved=1;startArrow=none;endArrow=block;exitX=0.51;exitY=1;entryX=0.5;entryY=0;rounded=0;" edge="1" parent="1" source="Itl9tVtiQUoRd5ECMhHl-1" target="Itl9tVtiQUoRd5ECMhHl-2">
          <mxGeometry relative="1" as="geometry">
            <Array as="points" />
          </mxGeometry>
        </mxCell>
        <mxCell id="Itl9tVtiQUoRd5ECMhHl-14" value="" style="curved=1;startArrow=none;endArrow=block;exitX=0.5;exitY=1;entryX=0.5;entryY=0;rounded=0;" edge="1" parent="1" source="Itl9tVtiQUoRd5ECMhHl-2" target="Itl9tVtiQUoRd5ECMhHl-3">
          <mxGeometry relative="1" as="geometry">
            <Array as="points" />
          </mxGeometry>
        </mxCell>
        <mxCell id="Itl9tVtiQUoRd5ECMhHl-15" value="" style="curved=1;startArrow=none;endArrow=block;exitX=0.3;exitY=1;entryX=0.5;entryY=0;rounded=0;" edge="1" parent="1" source="Itl9tVtiQUoRd5ECMhHl-3" target="Itl9tVtiQUoRd5ECMhHl-4">
          <mxGeometry relative="1" as="geometry">
            <Array as="points">
              <mxPoint x="202" y="292" />
            </Array>
          </mxGeometry>
        </mxCell>
        <mxCell id="Itl9tVtiQUoRd5ECMhHl-16" value="" style="curved=1;startArrow=none;endArrow=block;exitX=0.5;exitY=1;entryX=0.21;entryY=0;rounded=0;" edge="1" parent="1" source="Itl9tVtiQUoRd5ECMhHl-4" target="Itl9tVtiQUoRd5ECMhHl-5">
          <mxGeometry relative="1" as="geometry">
            <Array as="points">
              <mxPoint x="202" y="396" />
            </Array>
          </mxGeometry>
        </mxCell>
        <mxCell id="Itl9tVtiQUoRd5ECMhHl-17" value="Oui" style="curved=1;startArrow=none;endArrow=block;exitX=0.79;exitY=0;entryX=0.7;entryY=1;rounded=0;" edge="1" parent="1" source="Itl9tVtiQUoRd5ECMhHl-5" target="Itl9tVtiQUoRd5ECMhHl-3">
          <mxGeometry relative="1" as="geometry">
            <Array as="points">
              <mxPoint x="372" y="396" />
              <mxPoint x="372" y="292" />
            </Array>
          </mxGeometry>
        </mxCell>
        <mxCell id="Itl9tVtiQUoRd5ECMhHl-18" value="Non" style="curved=1;startArrow=none;endArrow=block;exitX=0.5;exitY=1;entryX=0.5;entryY=0;rounded=0;" edge="1" parent="1" source="Itl9tVtiQUoRd5ECMhHl-5" target="Itl9tVtiQUoRd5ECMhHl-6">
          <mxGeometry relative="1" as="geometry">
            <Array as="points" />
          </mxGeometry>
        </mxCell>
        <mxCell id="Itl9tVtiQUoRd5ECMhHl-19" value="" style="curved=1;startArrow=none;endArrow=block;exitX=0.5;exitY=1;entryX=0.5;entryY=0;rounded=0;" edge="1" parent="1" source="Itl9tVtiQUoRd5ECMhHl-6" target="Itl9tVtiQUoRd5ECMhHl-7">
          <mxGeometry relative="1" as="geometry">
            <Array as="points" />
          </mxGeometry>
        </mxCell>
        <mxCell id="Itl9tVtiQUoRd5ECMhHl-20" value="" style="curved=1;startArrow=none;endArrow=block;exitX=0.5;exitY=1;entryX=0.5;entryY=0;rounded=0;" edge="1" parent="1" source="Itl9tVtiQUoRd5ECMhHl-7" target="Itl9tVtiQUoRd5ECMhHl-8">
          <mxGeometry relative="1" as="geometry">
            <Array as="points" />
          </mxGeometry>
        </mxCell>
        <mxCell id="Itl9tVtiQUoRd5ECMhHl-21" value="" style="curved=1;startArrow=none;endArrow=block;exitX=0.33;exitY=1;entryX=0.5;entryY=0;rounded=0;" edge="1" parent="1" source="Itl9tVtiQUoRd5ECMhHl-8" target="Itl9tVtiQUoRd5ECMhHl-9">
          <mxGeometry relative="1" as="geometry">
            <Array as="points">
              <mxPoint x="206" y="1048" />
            </Array>
          </mxGeometry>
        </mxCell>
        <mxCell id="Itl9tVtiQUoRd5ECMhHl-22" value="" style="curved=1;startArrow=none;endArrow=block;exitX=0.5;exitY=1;entryX=0.15;entryY=0;rounded=0;" edge="1" parent="1" source="Itl9tVtiQUoRd5ECMhHl-9" target="Itl9tVtiQUoRd5ECMhHl-10">
          <mxGeometry relative="1" as="geometry">
            <Array as="points">
              <mxPoint x="206" y="1152" />
            </Array>
          </mxGeometry>
        </mxCell>
        <mxCell id="Itl9tVtiQUoRd5ECMhHl-23" value="Non" style="curved=1;startArrow=none;endArrow=block;exitX=0.86;exitY=0;entryX=0.67;entryY=1;rounded=0;" edge="1" parent="1" source="Itl9tVtiQUoRd5ECMhHl-10" target="Itl9tVtiQUoRd5ECMhHl-8">
          <mxGeometry relative="1" as="geometry">
            <Array as="points">
              <mxPoint x="368" y="1152" />
              <mxPoint x="368" y="1048" />
            </Array>
          </mxGeometry>
        </mxCell>
        <mxCell id="Itl9tVtiQUoRd5ECMhHl-24" value="Oui" style="curved=1;startArrow=none;endArrow=block;exitX=0.5;exitY=1;entryX=0.5;entryY=0.01;rounded=0;" edge="1" parent="1" source="Itl9tVtiQUoRd5ECMhHl-10" target="Itl9tVtiQUoRd5ECMhHl-11">
          <mxGeometry relative="1" as="geometry">
            <Array as="points" />
          </mxGeometry>
        </mxCell>
        <mxCell id="Itl9tVtiQUoRd5ECMhHl-25" value="" style="curved=1;startArrow=none;endArrow=block;exitX=0.5;exitY=1.01;entryX=0.5;entryY=0.01;rounded=0;" edge="1" parent="1" source="Itl9tVtiQUoRd5ECMhHl-11" target="Itl9tVtiQUoRd5ECMhHl-12">
          <mxGeometry relative="1" as="geometry">
            <Array as="points" />
          </mxGeometry>
        </mxCell>
      </root>
    </mxGraphModel>
  </diagram>
</mxfile>
